# xmcd
#
# Track frame offsets: 
#        150
#        34536
#        64924
#        83535
#        102877
#        122239
#        138248
#        172615
#        180870
#        200977
#
# Disc length: 2894 seconds
#
# Revision: 2
# Processed by: cddbd v1.5.2PL0 Copyright (c) Steve Scherf et al.
# Submitted via: ExactAudioCopyFreeDBPlugin 1.0
#
DISCID=790b4c0a
DTITLE=Otis Taylor - Hey Joe Opus Red Meat
DYEAR=2015
DGENRE=Blues
TTITLE0=Hey Joe (A)
TTITLE1=Sunday Morning (A)
TTITLE2=The Heart is a Muscle (Used for the Blues)
TTITLE3=Red Meat
TTITLE4=Peggy Lee
TTITLE5=They Wore Blue
TTITLE6=Hey Joe (B)
TTITLE7=Sunday Morning (B)
TTITLE8=Cold at Midnight
TTITLE9=Sunday Morning (C)
EXTD=YEAR: 2015
EXTT0=
EXTT1=
EXTT2=
EXTT3=
EXTT4=
EXTT5=
EXTT6=
EXTT7=
EXTT8=
EXTT9=
PLAYORDER=
